# xmcd CD database file
# Copyright (C) 1993-1998 Ti Kan
# 
# Track frame offsets:
# 150
# 13625
# 26997
# 40657
# 51947
# 65552
# 78432
# 91132
# 104302
# 118350
# 129582
# 142415
# 155690
# 168232
# 181132
# 
# Disc length: 2564 seconds
# 
# Revision: 0
# Processed by: cddbd v1.4b41PL1 Copyright (c) Steve Scherf et al.
# Submitted via: SuperSonic v3.0
# 
DISCID=d10a020f
DTITLE=The Ravens - Old Man Rier
DYEAR=1900
DGENRE=
TTITLE0=Old Man Rver
TTITLE1=Summertime
TTITLE2=Once In A While
TTITLE3=I Don't Know Why I Love You Like I Do
TTITLE4=The House I LIve In
TTITLE5=Get Wise Baby
TTITLE6=Send For Me If You Need Me
TTITLE7=Count Every Star
TTITLE8=Be I Bumblebee Or Not
TTITLE9=Leave My Gal Alone
TTITLE10=Rooster
TTITLE11=I Don't Have To Ride No  More
TTITLE12=Time Is Marching On
TTITLE13=Marie
TTITLE14=Rickey's Blues
EXTD=
EXTT0=
EXTT1=
EXTT2=
EXTT3=
EXTT4=
EXTT5=
EXTT6=
EXTT7=
EXTT8=
EXTT9=
EXTT10=
EXTT11=
EXTT12=
EXTT13=
EXTT14=
PLAYORDER=
